<?xml version="1.0" encoding="UTF-8"?>
<svg xmlns="http://www.w3.org/2000/svg" xmlns:xlink="http://www.w3.org/1999/xlink" viewBox="0 0 50 50" width="50px" height="50px">
<g id="surface77141275">
<path style=" stroke:none;fill-rule:nonzero;fill:rgb(69.01961%,69.01961%,68.627453%);fill-opacity:1;" d="M 45.101562 24.996094 L 48.296875 18.75 L 42.40625 14.941406 L 42.050781 7.9375 L 35.046875 7.585938 L 31.234375 1.695312 L 24.992188 4.898438 L 18.75 1.699219 L 14.941406 7.59375 L 7.9375 7.949219 L 7.585938 14.953125 L 1.695312 18.765625 L 4.894531 25.007812 L 1.703125 31.25 L 7.59375 35.058594 L 7.949219 42.0625 L 14.953125 42.414062 L 18.765625 48.304688 L 25.007812 45.105469 L 31.25 48.300781 L 35.058594 42.40625 L 42.0625 42.050781 L 42.414062 35.046875 L 48.304688 31.234375 Z M 22.238281 32.5625 L 15.421875 25.742188 L 17.539062 23.621094 L 22.273438 28.351562 L 32.476562 18.464844 L 34.5625 20.617188 Z M 22.238281 32.5625 "/>
</g>
</svg>
